<?xml version="1.0" encoding="UTF-8" standalone="no"?>
<!-- Created with Inkscape (http://www.inkscape.org/) -->

<svg
   xmlns:dc="http://purl.org/dc/elements/1.1/"
   xmlns:cc="http://creativecommons.org/ns#"
   xmlns:rdf="http://www.w3.org/1999/02/22-rdf-syntax-ns#"
   xmlns:svg="http://www.w3.org/2000/svg"
   xmlns="http://www.w3.org/2000/svg"
   xmlns:xlink="http://www.w3.org/1999/xlink"
   xmlns:sodipodi="http://sodipodi.sourceforge.net/DTD/sodipodi-0.dtd"
   xmlns:inkscape="http://www.inkscape.org/namespaces/inkscape"
   version="1.1"
   width="415.1351"
   height="416.87201"
   viewBox="-801266.82 0 0 560.87201"
   id="svg114"
   inkscape:version="0.91 r"
   sodipodi:docname="Raster.svg">
  <sodipodi:namedview
     pagecolor="#ffffff"
     bordercolor="#666666"
     borderopacity="1"
     objecttolerance="10"
     gridtolerance="10"
     guidetolerance="10"
     inkscape:pageopacity="0"
     inkscape:pageshadow="2"
     inkscape:window-width="1366"
     inkscape:window-height="703"
     id="namedview55"
     showgrid="false"
     inkscape:zoom="1.2888156"
     inkscape:cx="207.16695"
     inkscape:cy="207.64581"
     inkscape:window-x="0"
     inkscape:window-y="0"
     inkscape:window-maximized="1"
     inkscape:current-layer="svg114"
     fit-margin-top="0"
     fit-margin-left="0"
     fit-margin-right="0"
     fit-margin-bottom="0" />
  <metadata
     id="metadata224">
    <rdf:RDF>
      <cc:Work
         rdf:about="">
        <dc:format>image/svg+xml</dc:format>
        <dc:type
           rdf:resource="http://purl.org/dc/dcmitype/StillImage" />
        <dc:title></dc:title>
      </cc:Work>
    </rdf:RDF>
  </metadata>
  <defs
     id="defs116">
    <linearGradient
       x1="791.12482"
       y1="159.45061"
       x2="439.74969"
       y2="426.20889"
       id="linearGradient192"
       gradientUnits="userSpaceOnUse"
       gradientTransform="translate(-10.0599,-10.001101)">
      <stop
         id="stop119"
         style="stop-color:#3333ff;stop-opacity:1"
         offset="0" />
      <stop
         id="stop121"
         style="stop-color:#3f3fff;stop-opacity:0"
         offset="1" />
    </linearGradient>
    <linearGradient
       x1="312.3125"
       y1="168.0827"
       x2="-39.062599"
       y2="434.841"
       id="linearGradient4345"
       gradientUnits="userSpaceOnUse"
       gradientTransform="translate(-10.0599,-10.001101)">
      <stop
         id="stop124"
         style="stop-color:#333333;stop-opacity:1"
         offset="0" />
      <stop
         id="stop126"
         style="stop-color:#ffffff;stop-opacity:0"
         offset="1" />
    </linearGradient>
  </defs>
  <g
     id="g4162"
     transform="translate(0,2.0004542)">
    <path
       inkscape:connector-curvature="0"
       style="fill:url(#linearGradient4345)"
       id="RasterGradient"
       d="M 186.9085,87.806199 C 277.3499,221.5219 377.3238,163.2295 390.2315,246.4122 c -11.9148,114.33 -136.829,115.5743 -369.6074,116.457 -4.3017,-1.0684 -1.9344,-3.592 -0.6148,-37.262 C 96.0211,288.3184 171.1325,199.6726 186.9085,87.806299 Z" />
    <path
       inkscape:connector-curvature="0"
       style="fill:none;stroke:#000000;stroke-width:3.45020008"
       id="path196"
       d="m 1.7251,1.7838986 410.8837,0 0,410.8837014 -410.8837,0 z" />
    <g
       id="RasterLarge"
       transform="matrix(1.35527,0,0,1.28322,-166.36568,-643.12736)">
      <path
         inkscape:connector-curvature="0"
         style="fill:#979797"
         id="path204"
         d="m 287.1429,729.5051 -30,0 0,-60 20,0 0,20 10,0 0,10 10,0 0,10 20,0 0,10 40,0 0,-10 20,0 0,-20 10,0 0,-20 -10,0 0,-10 -10,0 0,-10 -40,0 0,-10 -30,0 0,-10 -20,0 0,-10 -10,0 0,-10 -10,0 0,-60 10,0 0,-10 10,0 0,-10 10,0 0,-10 90,0 0,10 30,0 0,60 -20,0 0,-10 -10,0 0,-20 -10,0 0,-10 -20,0 0,-10 -30,0 0,10 -20,0 0,10 -10,0 0,20 10,0 0,20 30,0 0,10 30,0 0,10 30,0 0,10 10,0 0,10 10,0 0,10 10,0 0,60 -10,0 0,10 -10,0 0,10 -10,0 0,10 -100,0 0,-10 z" />
      <path
         inkscape:connector-curvature="0"
         style="fill:#555555"
         id="path206"
         d="m 297.1429,729.5051 -30,0 0,-10 -10,0 0,-50 20,0 0,20 10,0 0,20 10,0 10,0 0,10 60,0 0,-10 10,0 0,-10 10,0 0,-40 -20,0 0,-10 -20,0 0,-10 -40,0 0,-10 -20,0 0,-10 -20,0 0,-20 -10,0 0,-50 10,0 0,-10 10,0 0,-10 20,0 0,-10 70,0 0,10 30,0 0,10 10,0 0,50 -20,0 0,-20 -10,0 0,-20 -20,0 0,-10 -50,0 0,10 -10,0 0,10 -10,0 0,30 10,0 0,10 20,0 0,10 30,0 0,10 30,0 0,10 20,0 0,10 10,0 0,10 10,0 0,50 -10,0 0,20 -10,0 0,10 -20,0 0,10 -80,0 z" />
      <path
         inkscape:connector-curvature="0"
         style="fill:#000000"
         id="path208"
         d="m 307.1429,729.5051 -30,0 0,-10 -20,0 0,-50 20,0 0,30 10,0 0,10 10,0 0,10 70,0 0,-10 20,0 0,-50 -10,0 0,-10 -20,0 0,-10 -40,0 0,-10 -30,0 0,-10 -10,0 0,-10 -10,0 0,-20 -10,0 0,-30 10,0 0,-20 20,0 0,-10 20,0 0,-10 50,0 0,10 30,0 0,10 20,0 0,50 -20,0 0,-30 -10,0 0,-10 -10,0 0,-10 -70,0 0,10 -10,0 0,40 10,0 0,10 10,0 0,10 30,0 0,10 40,0 0,10 20,0 0,10 10,0 0,20 10,0 0,40 -10,0 0,20 -20,0 0,10 -30,0 0,10 -50,0 0,-10 z" />
    </g>
    <use
       xlink:href="#RasterLarge"
       height="585.14453"
       width="915.19501"
       y="0"
       x="0"
       id="RasterSmall"
       transform="matrix(0.15161479,0,0,0.17311505,-7.8050348,313.16982)" />
  </g>
</svg>
