<?xml version="1.0" encoding="UTF-8" standalone="no"?>
<!-- Created with Inkscape (http://www.inkscape.org/) -->

<svg
   xmlns:dc="http://purl.org/dc/elements/1.1/"
   xmlns:cc="http://creativecommons.org/ns#"
   xmlns:rdf="http://www.w3.org/1999/02/22-rdf-syntax-ns#"
   xmlns:svg="http://www.w3.org/2000/svg"
   xmlns="http://www.w3.org/2000/svg"
   xmlns:xlink="http://www.w3.org/1999/xlink"
   xmlns:sodipodi="http://sodipodi.sourceforge.net/DTD/sodipodi-0.dtd"
   xmlns:inkscape="http://www.inkscape.org/namespaces/inkscape"
   version="1.1"
   width="421.1351"
   height="416.87201"
   viewBox="-801266.82 0 0 560.87201"
   id="svg114"
   inkscape:version="0.91 r"
   sodipodi:docname="Vector.svg">
  <sodipodi:namedview
     pagecolor="#ffffff"
     bordercolor="#666666"
     borderopacity="1"
     objecttolerance="10"
     gridtolerance="10"
     guidetolerance="10"
     inkscape:pageopacity="0"
     inkscape:pageshadow="2"
     inkscape:window-width="1366"
     inkscape:window-height="703"
     id="namedview55"
     showgrid="false"
     inkscape:zoom="1.2883624"
     inkscape:cx="211.00181"
     inkscape:cy="208.20358"
     inkscape:window-x="0"
     inkscape:window-y="0"
     inkscape:window-maximized="1"
     inkscape:current-layer="svg114"
     fit-margin-top="0"
     fit-margin-left="0"
     fit-margin-right="0"
     fit-margin-bottom="0"
     inkscape:snap-intersection-paths="true"
     inkscape:object-paths="true" />
  <metadata
     id="metadata224">
    <rdf:RDF>
      <cc:Work
         rdf:about="">
        <dc:format>image/svg+xml</dc:format>
        <dc:type
           rdf:resource="http://purl.org/dc/dcmitype/StillImage" />
        <dc:title></dc:title>
      </cc:Work>
    </rdf:RDF>
  </metadata>
  <defs
     id="defs116">
    <linearGradient
       x1="791.12482"
       y1="159.45061"
       x2="439.74969"
       y2="426.20889"
       id="linearGradient192"
       gradientUnits="userSpaceOnUse"
       gradientTransform="translate(-10.0599,-10.00106)">
      <stop
         id="stop119"
         style="stop-color:#3333ff;stop-opacity:1"
         offset="0" />
      <stop
         id="stop121"
         style="stop-color:#3f3fff;stop-opacity:0"
         offset="1" />
    </linearGradient>
    <linearGradient
       x1="312.3125"
       y1="168.0827"
       x2="-39.062599"
       y2="434.841"
       id="linearGradient4345"
       gradientUnits="userSpaceOnUse"
       gradientTransform="translate(-10.0599,-10.001101)">
      <stop
         id="stop124"
         style="stop-color:#333333;stop-opacity:1"
         offset="0" />
      <stop
         id="stop126"
         style="stop-color:#ffffff;stop-opacity:0"
         offset="1" />
    </linearGradient>
  </defs>
  <g
     id="g4151"
     transform="translate(-475.14874,1.4285619)">
    <path
       inkscape:connector-curvature="0"
       style="fill:none;stroke:#404091;stroke-width:3.45020008"
       id="path198"
       d="m 478.8911,1.7251357 414.5189,0 0,411.0294643 -414.5189,0 z" />
    <path
       inkscape:connector-curvature="0"
       style="fill:url(#linearGradient192)"
       id="VectorGradient"
       d="m 865.7644,234.5007 c -11.9148,114.33 -133.5496,118.8537 -366.328,119.7364 -4.3017,-1.0684 -1.9344,-3.592 -0.6148,-37.262 C 574.8334,279.6863 632.80688,206.04704 648.58288,94.18078 686.59772,142.21296 857.67075,194.9765 865.7644,234.5007 Z" />
    <path
       inkscape:connector-curvature="0"
       style="fill:#00005f"
       id="VectorLarge"
       d="m 649.89973,283.27975 0,-62.4662 23.78151,0.18371 c -1.01071,61.49272 93.82963,73.05392 135.34794,48.22763 21.39465,-17.53681 26.4767,-50.46192 7.65143,-68.25353 C 773.11597,169.93084 702.14354,173.60118 664.27204,139.60746 635.8341,105.58651 643.95954,58.402087 678.27356,33.877509 740.62175,6.1115587 796.57081,17.795142 854.21419,33.414955 l 0,58.424255 -23.36791,0 c -4.5044,-41.043404 -45.45215,-53.094813 -81.7272,-53.33714 -48.73789,4.001851 -86.70692,42.202757 -49.79502,75.56772 45.8982,30.05211 115.79723,26.39803 152.512,60.90444 27.88628,31.7753 13.76265,86.54478 -17.42335,109.31261 -66.02951,27.8894 -124.40465,19.43804 -184.51287,-1.00728 z" />
    <use
       xlink:href="#VectorLarge"
       height="585.14453"
       width="915.19501"
       y="0"
       x="0"
       id="VectorSmall"
       transform="matrix(0.1489017,0,0,0.16997699,399.17262,304.84086)" />
  </g>
</svg>
