<?xml version="1.0" encoding="utf-8"?>
<!-- Generator: Adobe Illustrator 15.0.1, SVG Export Plug-In . SVG Version: 6.00 Build 0)  -->
<!DOCTYPE svg PUBLIC "-//W3C//DTD SVG 1.1//EN" "http://www.w3.org/Graphics/SVG/1.1/DTD/svg11.dtd">
<svg version="1.1" id="Layer_1" xmlns="http://www.w3.org/2000/svg" xmlns:xlink="http://www.w3.org/1999/xlink" x="0px" y="0px"
	 width="400px" height="450px" viewBox="0 0 400 450" enable-background="new 0 0 400 450" xml:space="preserve">
<g id="XMLID_2_">
	<g>
		<path fill="#FFFFFF" d="M410.822,4.359c0,146.65,0,293.3,0,439.95c-127.311,0-254.63,0-381.95,0c0-145.66,0-291.3,0-436.95
			c-0.09-1.42-0.17-2.83,1-3C156.852,4.359,283.842,4.359,410.822,4.359z M374.832,415.31c-0.63-6.38-3.46-10.55-6-15
			c-8.74-6.47-19.28-9.021-27-16c-7.16-6.47-8.53-18.82-19-21.99c10.31,17.69,25.1,30.89,44,39.99
			C370.452,405.689,370.452,412.689,374.832,415.31z M332.832,397.31c0.22-0.78,0.84-1.16,2-1c-9.9-17.42-14.55-40.11-22-59.99
			c-3.93-1.6-0.34,4.32-3,4c-3.4-14.6-4.82-31.17-4.99-49c4.271-2.38,5.261-8.06,7.99-11.99c-2.65-15.84,6.83-33.02,5-48
			c2.49-5.229,11.021-11.67,13-21c1.4-6.57,0.55-19,1-28.99c0.87-19.21-2.25-32.5-9-41c2.95-12.37-5.32-21.94-4-35.99
			c-3.9-7.1-4.46-17.53-11-22c1.36-12.69-13.63-17.69-14.99-31c-11.5-6.16-14.45-20.88-33-19.99c-2.979-2.35-5.79-4.88-12-4
			c-2.02-1.98-4.29-3.71-6-6c-20.14-3.34-38.3-8.1-60.99-4c-2.44-0.56-2.13-3.87-6-3c-8.31,3.66-19.85-0.28-29.99,2
			c-2.63,0.59-3.92,3.57-7,2c-8.3,9.37-28.01,7.32-34,19c-5.41,0.58-7.34,4.66-11,7c-3.05,0.72-3.64-1.03-6-1
			c-0.72,3.05,1.73,2.94,1,5.99c-2.65,0.01-5.71-0.37-7,1c-1.66,3.14,3.72,4.09,1,5c-3.15,0.49-3.53-1.8-7-1
			c-1.15,2.94,4.8,3.72,2,5c-2,0-4,0-6,0c-0.38,3.72,4.06,2.62,3,7c-1.67,1.77-3.35-0.89-6.99,0c-1.25,3.66,4.53,5.36,2,7
			c-2.34,0-4.67,0-7,0c-1.15,3.15,1.57,2.43,2,4c-6.79-2.12-5.78,3.56-11,3c0,1.67,0,3.33,0,5c-3.06-0.73-2.94,1.72-6,1
			c-0.6,2.07,1.23,6.57-1,7c-1.07-0.93-0.31-3.69-3-3c0.08,6.75-0.94,12.4-2,18c4.86,1.71,1.21,9.01,2,14c3.68-0.82,4.26,2.57,7,1
			c0.71,3.7-1.71,4.29-1,7.99c3.14,1.67,4.08-3.71,5-1c-0.43,1.91-2.86,1.81-2,5c3.07,0.75,1.92-2.74,5-2c-1.03,2.31-3.45,3.23-3,7
			c1.72,0.4,2.56-1.48,3,0c-2.04,2.64-3.96,5.37-5,9c6.38,0.8,0.84,7.42,1,11c5.07-3.15,2.16,6.07,4,9c2.5,1.32,3.13-3.95,4-1
			c-0.1,3.1,1.22,4.78,2,7c-3.15,7.3-10.1,12.14-10,20c0.08,6.63,7.79,10.61,6,18.99c3.96,4.35,8.67,5.84,10,11
			c3.25,12.66-5.13,21.68-6,31c-1.2,12.69,6.48,23.92,10.99,31.99c13.24,23.68,31.5,37.11,44,59c0.86,12.47,2.1,24.56,8,31.99
			c2.88,2.78,9.04,2.29,10,7c-1.28-0.05-1.39-1.28-3-1c1.92,7.84-6.07,12.689-10,19c-3.83,6.13-5,12.649-8,19
			c5.32-3.5,6.87-10.78,10-16c3.48-5.83,7.28-10.97,11-16c10.11,7.88,8.57,27.42,21.99,32c-7.13-7.87-13.71-24.95-19.99-37
			c6.46-0.79,5.81,5.52,12.99,4c5.73,4.609,10.19,10.479,17,14c-2.29-7.04-9.57-9.09-13-15c21.72-3.61,39.44-11.22,47-28.99
			c-5.88,4.3-9.141,10.67-15,14.99c-9.93,7.33-22.85,10.75-38,13c-13.13-5.83-25.53-10.641-27.99-26.99c-0.68-4.49,0.49-9.15,0-15
			c-7.53-14.64-21.14-25.86-31-38c-5.98-7.36-11.53-16.9-16-25c-3.21-5.82-8.41-14.87-8.99-20.99c-0.88-9.12,4.68-17.06,5.99-27
			c2.32-3.02,7.89-2.779,9-7c-3.35-0.93-6.3,3.59-8,1c0.18-2.819,4.76-1.25,4-5c-2.48-1.3-4.15,2.94-5,0c-1.49-3.16-1.23-7.87,2-9
			c0,2,0,4,0,6c10.19,8.99,25.17,0.26,34-4c11.17-21.9-12.7-28.28-28-32.99c5.07-5.94,9.72-12.28,16-17c-1.18-7.18,2.05-9.95,3-15
			c-16.44,1.55-21.25,14.75-32.99,21c-3.74-7.51-2.57-24.45,1-31c-1.12-11.05,6.85-29.3,22.99-32.99c2.9-0.66,6.99,0.38,10,0
			c4.89-0.63,15.73-3.22,20-5c5.47-2.29,8.87-6.87,13-9c6.36-3.29,12.85-2.05,21.99-3c10.95-1.14,22.8-9.42,30-9
			c7.16,0.42,11.46,8.68,19,12c5.05,2.22,8.779-0.31,12,4c0.109,8.58-2.73,19.08,0,26.99c18.069,12.27,34.189,26.47,32.989,58
			c5.74,1.17,10.311-0.44,17,1c3.42-13.91,13.15-21.52,23-29c3.16-7.92,6.521-15.27,14-17c17.7-4.09,28.99,12.2,26.99,28
			c-0.68-5.99-3.8-9.53-4-16c-2.28-1.71-5.05-2.95-7-5c-18.34-3.34-23.28,6.72-27.99,17c8.851-5.15,8.96-19.04,26.99-15
			c8.51,4.16,7.71,17.63,13,25c-2.45,12.27,1.13,24.28-1,34.99c-0.58,2.95-3.8,8.31-6,12c-6.76,11.379-15.479,18.54-29.99,17
			c2.65,11.83-0.979,23.75,0,37c4.561,1.23-0.1-6.76,3-7c-2.18,17.74,2.98,32.45,0,45.99c-2.25,10.19-14.319,18.51-21,27
			c-3.37,4.29-6.479,10.25-7,16c4.74-4.01,5.3-10.12,10-16c1.811-2.27,4.65-4.14,7-7c2.24-2.74,3.94-6.5,6-9c1.5-1.82,3.92-1.99,5-4
			c3.931-7.34,2-19.45,2-31c0-11,1.45-24.41-3-29.99c2.141-4.52,0.471-12.859,1-19c6.101,0.431,8.19-3.14,13.99-3
			c-8.3,30.05-9.71,76.221-1,106.99c3.56,1.55,0.61-3.4,3-3c4,11.58,9.08,24.99,12,37.99c0.72,3.189,0.04,6.21,1,9
			c1.73,4.99,6.24,8.649,7,14c1.56,10.96-4.26,20.91-5,33c2.13-1.521,4.16-6.53,5-10
			C333.972,416.489,334.332,405.869,332.832,397.31z M320.832,174.339c3.771,9.1,2.36,24.06-3,30
			C327.022,203.529,327.722,178.569,320.832,174.339z M311.832,205.339c8.83-2.18,12.82-23.61,5-30
			C321.572,186.29,316.832,198.25,311.832,205.339z M307.832,207.33c-7.12-1.1-9.42,7.89-12.99,7c1.971-9.9,1.28-21.51-7-23.99
			c0.78,5.09,5.09,6.79,6,12c0.83,4.81-2.16,9.56-1,15.99C299.732,216.569,303.542,211.709,307.832,207.33z M306.832,179.339
			c-2.4-3.92-7.22-5.44-11.99-7c-0.7,5.97-2.72,10.61-4,16c5.82-0.52,3.66-9.01,6-13
			C299.582,177.259,302.353,179.159,306.832,179.339z M227.853,283.319c1.399-11.37-2.841-21.55-4-32.99c-1.28-0.06-1.391-1.279-3-1
			c1.6,12.15,6.55,22.19,5,33.99c-0.601,4.56-3.311,9.87-5,15c-5.19,15.76-9.511,33.021-15,47c7.22-6.91,8.779-18.66,12-30
			C220.652,305.439,226.692,292.669,227.853,283.319z M193.852,345.319c21.02-10.91,22.5-54.19,16-82.99c-1,0-2,0-3,0
			c5.449,15.511,6.949,50.13-1,65.99C202.112,335.77,194.832,338.3,193.852,345.319z M208.853,183.339c0.609-3.95-5.49-1.18-8-2
			c-3.35,4.98-13.55,3.11-17,8C194.622,189.77,198.282,183.109,208.853,183.339z M206.853,295.319c2.42-24.5-10.69-44.04-25-54.99
			c-5.27-4.04-13.48-7.649-21-7c1.77,3.79,5.74,1.75,9,3c11.33,4.36,27.46,22.32,31,31c1.65,4.04,2.32,9.46,3,14
			C204.572,286.129,203.532,292.729,206.853,295.319z M206.853,171.339c-1.351-4.32-6.181-5.15-11-6
			C197.592,169.27,202.622,169.899,206.853,171.339z M181.852,194.339c8.24-0.09,13.15-3.52,22-3c-1.4-4.51-10.791-1.19-13,0
			C187.072,191.56,181.832,190.319,181.852,194.339z M187.852,317.319c5.04-4.94,16.12-25.74,12-35c-2.53-5.68-16.21-10.15-24-10.99
			c-13.62-1.47-26.66,1.61-35.99,4c-7.21,1.84-14.24,2.761-18,4c-3.44,1.12-18.34,7.181-19,13.99c-0.57,5.94,1.82,8.01,7,10
			c-1.95,5.56,4.13,8.19,7,12c2.8,3.72,4.52,10.16,9,13C139.602,337.05,178.272,326.709,187.852,317.319z M191.852,175.339
			c2.56-2.95,4.09-7.4,3-11c-1.05-3.45-12.82-9.65-22-11c-5.73-0.84-11.78,1.11-17,0c-6.58-1.4-10.01-7.09-13.99-8
			c-16.83-1.82-25.41,4.59-29,16c6.67,2.72,12.57-0.15,20,1c7.23,1.12,12.76,6.84,18.99,8c9.14,1.7,18.62-1.69,27,0
			C183.902,171.359,186.012,176.339,191.852,175.339z M201.853,173.339c-8.041,4.29-14.951,9.72-24,13
			c-11.68-2.74-34.17-11.59-35.99,6c4.67-4.22,11.03-13.19,19.99-7c-10.88-1.22-16.06,3.27-16.99,12c8.92-4.08,17.9-8.09,31.99-7
			C184.842,184.33,197.052,182.54,201.853,173.339z M160.852,250.329c0.09-5.09,0.44-10.439-2-13c-3.98-1.01-15.21-3.239-14.99,3
			c8.71-4.739,17.07-1.05,14.99,8c-1.03,4.53-7.09,2.45-8,8C156.182,256.319,157.762,252.56,160.852,250.329z M145.862,201.339
			c6.07,13.74,30.72,3.28,33.99-5C169.942,201.629,156.872,211.06,145.862,201.339z M149.852,256.329c1.06-3.72-3.37-1.96-3.99-4
			c-8.88-1.729-29,7-17,12C124.552,256.869,142.012,252.249,149.852,256.329z M135.862,133.339c-1.23-3.63-7.87-1.6-11-1
			c-4.5,0.87-10.96,3.26-12,6C121.352,137.509,126.762,133.58,135.862,133.339z M125.862,187.339c-1.69,3.48-2.2,13.19,3,13
			C125.682,196.899,128.982,188.529,125.862,187.339z M125.862,138.339c-12.49-0.15-15.89,8.78-30,7c0.85,3.48,6.47,2.25,9,2
			c6.03-0.6,8.06-3.31,12-5C120.542,140.77,124.722,141.729,125.862,138.339z M120.862,339.319c1.37,3.62,2.46,9.05,6,11
			c-3.64-13.58-6.72-25.11-16-37c-9.51-12.17-25.41-18.49-23-35.99c0.62-4.5,4.39-6.1,6-11c-1,0-2,0-3,0c-2.2,3.92-4.44,5.971-5,10
			c-2.43,17.63,9.54,24.49,17,31.99C111.272,316.779,116.592,327.979,120.862,339.319z M104.862,187.339
			c3.89,8.62,10.05,17.4,7,29.99c-1.33,0-2.67,0-4,0c-11.02,13.65-23.35,25.98-24,50c3.1-1.09,2.53-5.92,3-8
			c2.94-12.979,8.32-20.46,13-30c4.34-1.68,7.57-9.729,11-9c-3.64,12.03-5.54,25.799-14,33c0,3.33,0,6.66,0,10
			c2.84,4.34,11.14,5.17,16,2c-0.14-3.859-3.9-4.1-8-4c-2.02,3.2,3.96,3.12,1,4c-7.21,1.141-9.45-10.3-4-13
			c-0.02,3.69,0.45,6.88,4,7c0.07-4.069-3.26-4.739-2-10c7.54-16.729,16.65-44.85,4-61.99
			C106.862,187.339,105.862,187.339,104.862,187.339z M108.862,154.339c-0.11-1.22-0.3-2.37-2-2c-5.09,6.13-3.31,21.46,3,25
			C108.532,170.429,102.262,160.239,108.862,154.339z M102.862,177.339c-1.07-5.93-2.5-11.5-7-14
			C97.362,168.839,98.672,174.529,102.862,177.339z M75.862,151.339c5.86-5.48,16.66-6.01,21-13c-10.29,3.04-18.19,8.48-26,14
			c0,2,0,4,0,6C74.042,157.52,74.572,154.049,75.862,151.339z"/>
		<path d="M368.832,400.31c2.54,4.45,5.37,8.62,6,15c-4.38-2.62-4.38-9.62-8-13c-18.9-9.101-33.69-22.3-44-39.99
			c10.47,3.17,11.84,15.521,19,21.99C349.552,391.289,360.092,393.84,368.832,400.31z"/>
		<path d="M334.832,396.31c-1.16-0.16-1.78,0.22-2,1c1.5,8.56,1.14,19.18-1,28c-0.84,3.47-2.87,8.479-5,10
			c0.74-12.09,6.56-22.04,5-33c-0.76-5.351-5.27-9.01-7-14c-0.96-2.79-0.28-5.811-1-9c-2.92-13-8-26.41-12-37.99
			c-2.39-0.4,0.56,4.55-3,3c-8.71-30.77-7.3-76.94,1-106.99c-5.8-0.14-7.89,3.431-13.99,3c-0.529,6.141,1.141,14.48-1,19
			c4.45,5.58,3,18.99,3,29.99c0,11.55,1.931,23.66-2,31c-1.08,2.01-3.5,2.18-5,4c-2.06,2.5-3.76,6.26-6,9c-2.35,2.86-5.189,4.73-7,7
			c-4.7,5.88-5.26,11.99-10,16c0.521-5.75,3.63-11.71,7-16c6.681-8.49,18.75-16.81,21-27c2.98-13.54-2.18-28.25,0-45.99
			c-3.1,0.24,1.561,8.23-3,7c-0.979-13.25,2.65-25.17,0-37c14.511,1.54,23.23-5.62,29.99-17c2.2-3.69,5.42-9.05,6-12
			c2.13-10.71-1.45-22.72,1-34.99c-5.29-7.37-4.49-20.84-13-25c-18.03-4.04-18.14,9.85-26.99,15c4.71-10.28,9.65-20.34,27.99-17
			c1.95,2.05,4.72,3.29,7,5c0.2,6.47,3.32,10.01,4,16c2-15.8-9.29-32.09-26.99-28c-7.479,1.73-10.84,9.08-14,17
			c-9.85,7.48-19.58,15.09-23,29c-6.689-1.44-11.26,0.17-17-1c1.2-31.53-14.92-45.73-32.989-58c-2.73-7.91,0.109-18.41,0-26.99
			c-3.221-4.31-6.95-1.78-12-4c-7.541-3.32-11.84-11.58-19-12c-7.2-0.42-19.05,7.86-30,9c-9.14,0.95-15.63-0.29-21.99,3
			c-4.13,2.13-7.53,6.71-13,9c-4.27,1.78-15.11,4.37-20,5c-3.01,0.38-7.1-0.66-10,0c-16.14,3.69-24.11,21.94-22.99,32.99
			c-3.57,6.55-4.74,23.49-1,31c11.74-6.25,16.55-19.45,32.99-21c-0.95,5.05-4.18,7.82-3,15c-6.28,4.72-10.93,11.06-16,17
			c15.3,4.71,39.17,11.09,28,32.99c-8.83,4.26-23.81,12.99-34,4c0-2,0-4,0-6c-3.23,1.13-3.49,5.84-2,9c0.85,2.94,2.52-1.3,5,0
			c0.76,3.75-3.82,2.18-4,5c1.7,2.59,4.65-1.93,8-1c-1.11,4.221-6.68,3.98-9,7c-1.31,9.94-6.87,17.88-5.99,27
			c0.58,6.12,5.78,15.17,8.99,20.99c4.47,8.1,10.02,17.64,16,25c9.86,12.14,23.47,23.36,31,38c0.49,5.85-0.68,10.51,0,15
			c2.46,16.35,14.86,21.16,27.99,26.99c15.15-2.25,28.07-5.67,38-13c5.86-4.32,9.12-10.69,15-14.99
			c-7.561,17.771-25.28,25.38-47,28.99c3.43,5.91,10.71,7.96,13,15c-6.81-3.521-11.27-9.391-17-14c-7.18,1.52-6.53-4.79-12.99-4
			c6.28,12.05,12.86,29.13,19.99,37c-13.42-4.58-11.88-24.12-21.99-32c-3.72,5.03-7.52,10.17-11,16c-3.13,5.22-4.68,12.5-10,16
			c3-6.351,4.17-12.87,8-19c3.93-6.311,11.92-11.16,10-19c1.61-0.28,1.72,0.95,3,1c-0.96-4.71-7.12-4.22-10-7
			c-5.9-7.431-7.14-19.521-8-31.99c-12.5-21.89-30.76-35.32-44-59c-4.51-8.07-12.19-19.3-10.99-31.99c0.87-9.319,9.25-18.34,6-31
			c-1.33-5.16-6.04-6.65-10-11c1.79-8.38-5.92-12.36-6-18.99c-0.1-7.86,6.85-12.7,10-20c-0.78-2.22-2.1-3.9-2-7
			c-0.87-2.95-1.5,2.32-4,1c-1.84-2.93,1.07-12.15-4-9c-0.16-3.58,5.38-10.2-1-11c1.04-3.63,2.96-6.36,5-9c-0.44-1.48-1.28,0.4-3,0
			c-0.45-3.77,1.97-4.69,3-7c-3.08-0.74-1.93,2.75-5,2c-0.86-3.19,1.57-3.09,2-5c-0.92-2.71-1.86,2.67-5,1
			c-0.71-3.7,1.71-4.29,1-7.99c-2.74,1.57-3.32-1.82-7-1c-0.79-4.99,2.86-12.29-2-14c1.06-5.6,2.08-11.25,2-18
			c2.69-0.69,1.93,2.07,3,3c2.23-0.43,0.4-4.93,1-7c3.06,0.72,2.94-1.73,6-1c0-1.67,0-3.33,0-5c5.22,0.56,4.21-5.12,11-3
			c-0.43-1.57-3.15-0.85-2-4c2.33,0,4.66,0,7,0c2.53-1.64-3.25-3.34-2-7c3.64-0.89,5.32,1.77,6.99,0c1.06-4.38-3.38-3.28-3-7
			c2,0,4,0,6,0c2.8-1.28-3.15-2.06-2-5c3.47-0.8,3.85,1.49,7,1c2.72-0.91-2.66-1.86-1-5c1.29-1.37,4.35-0.99,7-1
			c0.73-3.05-1.72-2.94-1-5.99c2.36-0.03,2.95,1.72,6,1c3.66-2.34,5.59-6.42,11-7c5.99-11.68,25.7-9.63,34-19
			c3.08,1.57,4.37-1.41,7-2c10.14-2.28,21.68,1.66,29.99-2c3.87-0.87,3.56,2.44,6,3c22.69-4.1,40.85,0.66,60.99,4
			c1.71,2.29,3.98,4.02,6,6c6.21-0.88,9.021,1.65,12,4c18.55-0.89,21.5,13.83,33,19.99c1.36,13.31,16.351,18.31,14.99,31
			c6.54,4.47,7.1,14.9,11,22c-1.32,14.05,6.95,23.62,4,35.99c6.75,8.5,9.87,21.79,9,41c-0.45,9.99,0.4,22.42-1,28.99
			c-1.979,9.33-10.51,15.77-13,21c1.83,14.98-7.65,32.16-5,48c-2.729,3.931-3.72,9.61-7.99,11.99c0.17,17.83,1.59,34.4,4.99,49
			c2.66,0.32-0.93-5.6,3-4C320.282,356.199,324.932,378.89,334.832,396.31z M106.862,208.33c-16.27-4.67-23.96,4.49-32,11
			C84.672,227.289,104.602,220.189,106.862,208.33z M105.862,199.339c-6.53-5.8-15.2-9.47-26-11c-4.86,1.46-5.87,6.79-10.99,8
			c-4.81,7.55-11.05,16.32-1,21.99C73.662,205.129,87.222,199.699,105.862,199.339z M60.872,163.339c-1.11-4.23,2.35-13.02-2-14
			C55.602,153.719,58.532,159.239,60.872,163.339z"/>
		<path d="M317.832,204.339c5.36-5.94,6.771-20.9,3-30C327.722,178.569,327.022,203.529,317.832,204.339z"/>
		<path d="M316.832,175.339c7.82,6.39,3.83,27.82-5,30C316.832,198.25,321.572,186.29,316.832,175.339z"/>
		<path d="M294.842,214.33c3.57,0.89,5.87-8.1,12.99-7c-4.29,4.38-8.1,9.24-14.99,11c-1.16-6.43,1.83-11.18,1-15.99
			c-0.91-5.21-5.22-6.91-6-12C296.122,192.819,296.812,204.429,294.842,214.33z"/>
		<path d="M294.842,172.339c4.771,1.56,9.59,3.08,11.99,7c-4.479-0.18-7.25-2.08-9.99-4c-2.34,3.99-0.18,12.48-6,13
			C292.122,182.949,294.142,178.31,294.842,172.339z"/>
		<path d="M223.853,250.329c1.159,11.44,5.399,21.62,4,32.99c-1.16,9.35-7.2,22.12-10,32c-3.221,11.34-4.78,23.09-12,30
			c5.489-13.979,9.81-31.24,15-47c1.689-5.13,4.399-10.44,5-15c1.55-11.8-3.4-21.84-5-33.99
			C222.462,249.05,222.572,250.27,223.853,250.329z"/>
		<path d="M209.853,262.329c6.5,28.8,5.02,72.08-16,82.99c0.98-7.02,8.26-9.55,12-17c7.949-15.86,6.449-50.479,1-65.99
			C207.853,262.329,208.853,262.329,209.853,262.329z"/>
		<path d="M200.852,181.339c2.51,0.82,8.61-1.95,8,2c-10.57-0.23-14.23,6.43-25,6C187.302,184.449,197.502,186.319,200.852,181.339z
			"/>
		<path d="M181.852,240.329c14.31,10.95,27.42,30.49,25,54.99c-3.32-2.59-2.28-9.19-3-13.99c-0.681-4.54-1.351-9.96-3-14
			c-3.54-8.68-19.67-26.64-31-31c-3.26-1.25-7.23,0.79-9-3C168.372,232.68,176.582,236.289,181.852,240.329z"/>
		<path d="M195.852,165.339c4.82,0.85,9.65,1.68,11,6C202.622,169.899,197.592,169.27,195.852,165.339z"/>
		<path d="M203.853,191.339c-8.851-0.52-13.76,2.91-22,3c-0.02-4.02,5.22-2.78,9-3C193.062,190.149,202.452,186.83,203.853,191.339z
			"/>
		<path d="M199.852,282.319c4.12,9.26-6.96,30.06-12,35c-9.58,9.39-48.25,19.73-61.99,11c-4.48-2.84-6.2-9.28-9-13
			c-2.87-3.81-8.95-6.44-7-12c-5.18-1.99-7.57-4.06-7-10c0.66-6.81,15.56-12.87,19-13.99c3.76-1.239,10.79-2.16,18-4
			c9.33-2.39,22.37-5.47,35.99-4C183.642,272.169,197.322,276.64,199.852,282.319z M184.852,316.319c5.48-4.87,8.11-12.29,9-18
			c-13.5,14.16-32.89,22.44-60.99,22c-8.24-3.43-11.96-11.37-20-15c6.47,7.31,9.93,22.41,25,24
			C150.912,330.689,175.272,324.85,184.852,316.319z M188.852,289.319c3.02-1.41,2.46-7.6-1-7.99
			C186.962,284.1,184.242,288.949,188.852,289.319z M177.852,290.319c3.82,1.9,6.63-1.6,6-7
			C179.522,278.14,174.272,285.209,177.852,290.319z M179.852,307.319c0.01-1.32,1.75-0.91,2-2c-1.28-0.05-1.38-1.28-3-1
			C179.012,305.499,178.682,307.159,179.852,307.319z M173.852,292.319c2.06-1.61,2.32-5.01,2-9c-3.8-3.68-9.09-0.7-8,6
			C169.962,290.209,170.812,292.369,173.852,292.319z M176.852,307.319c-2.04-0.29-1.96-2.7-4-3c-0.96,3.04-5.97,2.03-5,7
			C171.962,311.1,174.402,309.199,176.852,307.319z M181.852,274.329c-10.41-1.399-22.46-1.68-33.99,1c-8.7,2.021-17.68,3.94-24,6
			c-5.6,1.82-27.04,10.771-15,17.99c0.62-2.71-1.27-7.93,1-9C137.552,288.689,152.582,274.39,181.852,274.329z M162.852,314.319
			c1.78-1.56,5.33-1.34,4-6c-2.41,0.41-2.17-1.82-5-1C160.942,309.879,160.232,312.989,162.852,314.319z M163.852,295.319
			c3.48-3.16,4.5-12.2-1-13.99C157.542,284.619,153.762,294.26,163.852,295.319z M160.852,313.319c-1.48-0.18-0.91-2.42-1-4
			c-1.33,0-2.66,0-4,0c-1.37,1.29-0.99,4.34-1,7C157.082,315.539,160.282,315.739,160.852,313.319z M149.852,318.319
			c-0.71-2.71,4.72,0.72,4-2c-1.48-0.18-0.91-2.42-1-4c-1.33,0-2.66,0-4,0C149.432,314.079,147.652,318.199,149.852,318.319z
			 M149.852,298.319c8.63,0.9,7.98-11.18,3-14C148.342,287.119,147.112,292.899,149.852,298.319z M147.862,318.319
			c0-1.67,0-3.33,0-5c-1,0-2,0-3,0c-0.84,1.16-1.32,2.68-1,5C145.192,318.319,146.522,318.319,147.862,318.319z M147.862,300.319
			c-0.41-4.93-0.51-10.15-3-13C133.592,286.539,137.792,306.129,147.862,300.319z M140.862,318.319c2.78,1.6,2.76-4.32,1-4
			C141.542,315.669,140.432,316.229,140.862,318.319z M130.862,303.319c1.93,0.96,9.05,0.19,9-4c-5.14-0.86-1.29-10.71-9-9
			C129.282,292.879,129.282,300.77,130.862,303.319z M127.862,305.319c2.36-3.87,0.75-11.04-3-12
			C123.112,296.579,125.432,303.05,127.862,305.319z M124.862,305.319c-0.19-4.47-1.09-8.24-4-10
			C118.952,298.479,122.502,303.27,124.862,305.319z"/>
		<path d="M194.852,164.339c1.09,3.6-0.44,8.05-3,11c-5.84,1-7.95-3.98-13-5c-8.38-1.69-17.86,1.7-27,0
			c-6.23-1.16-11.76-6.88-18.99-8c-7.43-1.15-13.33,1.72-20-1c3.59-11.41,12.17-17.82,29-16c3.98,0.91,7.41,6.6,13.99,8
			c5.22,1.11,11.27-0.84,17,0C182.032,154.689,193.802,160.889,194.852,164.339z"/>
		<path d="M177.852,186.339c9.05-3.28,15.96-8.71,24-13c-4.8,9.2-17.01,10.99-25,17c-14.09-1.09-23.07,2.92-31.99,7
			c0.93-8.73,6.11-13.22,16.99-12c-8.96-6.19-15.32,2.78-19.99,7C143.682,174.75,166.172,183.6,177.852,186.339z"/>
		<path fill="#FFFFFF" d="M193.852,298.319c-0.89,5.71-3.52,13.13-9,18c-9.58,8.53-33.94,14.37-46.99,13
			c-15.07-1.59-18.53-16.69-25-24c8.04,3.63,11.76,11.57,20,15C160.962,320.76,180.352,312.479,193.852,298.319z"/>
		<path fill="#FFFFFF" d="M187.852,281.329c3.46,0.391,4.02,6.58,1,7.99C184.242,288.949,186.962,284.1,187.852,281.329z"/>
		<path fill="#FFFFFF" d="M183.852,283.319c0.63,5.4-2.18,8.9-6,7C174.272,285.209,179.522,278.14,183.852,283.319z"/>
		<path fill="#FFFFFF" d="M181.852,305.319c-0.25,1.09-1.99,0.68-2,2c-1.17-0.16-0.84-1.82-1-3
			C180.472,304.039,180.572,305.27,181.852,305.319z"/>
		<path fill="#FFFFFF" d="M175.852,283.319c0.32,3.99,0.06,7.39-2,9c-3.04,0.05-3.89-2.11-6-3
			C166.762,282.619,172.052,279.64,175.852,283.319z"/>
		<path fill="#FFFFFF" d="M172.852,304.319c2.04,0.3,1.96,2.71,4,3c-2.45,1.88-4.89,3.78-9,4
			C166.882,306.35,171.892,307.359,172.852,304.319z"/>
		<path fill="#FFFFFF" d="M147.862,275.329c11.53-2.68,23.58-2.399,33.99-1c-29.27,0.061-44.3,14.36-71.99,15.99
			c-2.27,1.07-0.38,6.29-1,9c-12.04-7.22,9.4-16.17,15-17.99C130.182,279.27,139.162,277.35,147.862,275.329z"/>
		<path fill="#FFFFFF" d="M166.852,308.319c1.33,4.66-2.22,4.44-4,6c-2.62-1.33-1.91-4.44-1-7
			C164.682,306.499,164.442,308.729,166.852,308.319z"/>
		<path fill="#FFFFFF" d="M162.852,281.329c5.5,1.79,4.48,10.83,1,13.99C153.762,294.26,157.542,284.619,162.852,281.329z"/>
		<path d="M158.852,237.329c2.44,2.561,2.09,7.91,2,13c-3.09,2.23-4.67,5.99-10,6c0.91-5.55,6.97-3.47,8-8
			c2.08-9.05-6.28-12.739-14.99-8C143.642,234.09,154.872,236.319,158.852,237.329z"/>
		<path fill="#FFFFFF" d="M159.852,309.319c0.09,1.58-0.48,3.82,1,4c-0.57,2.42-3.77,2.22-6,3c0.01-2.66-0.37-5.71,1-7
			C157.192,309.319,158.522,309.319,159.852,309.319z"/>
		<path d="M179.852,196.339c-3.27,8.28-27.92,18.74-33.99,5C156.872,211.06,169.942,201.629,179.852,196.339z"/>
		<path fill="#FFFFFF" d="M153.852,316.319c0.72,2.72-4.71-0.71-4,2c-2.2-0.12-0.42-4.24-1-6c1.34,0,2.67,0,4,0
			C152.942,313.899,152.372,316.14,153.852,316.319z"/>
		<path fill="#FFFFFF" d="M152.852,284.319c4.98,2.82,5.63,14.9-3,14C147.112,292.899,148.342,287.119,152.852,284.319z"/>
		<path d="M145.862,252.329c0.62,2.04,5.05,0.28,3.99,4c-7.84-4.08-25.3,0.54-20.99,8
			C116.862,259.329,136.982,250.6,145.862,252.329z"/>
		<path fill="#FFFFFF" d="M147.862,313.319c0,1.67,0,3.33,0,5c-1.34,0-2.67,0-4,0c-0.32-2.32,0.16-3.84,1-5
			C145.862,313.319,146.862,313.319,147.862,313.319z"/>
		<path fill="#FFFFFF" d="M144.862,287.319c2.49,2.85,2.59,8.07,3,13C137.792,306.129,133.592,286.539,144.862,287.319z"/>
		<path fill="#FFFFFF" d="M141.862,314.319c1.76-0.32,1.78,5.6-1,4C140.432,316.229,141.542,315.669,141.862,314.319z"/>
		<path fill="#FFFFFF" d="M139.862,299.319c0.05,4.19-7.07,4.96-9,4c-1.58-2.55-1.58-10.44,0-13
			C138.572,288.609,134.722,298.459,139.862,299.319z"/>
		<path d="M124.862,132.339c3.13-0.6,9.77-2.63,11,1c-9.1,0.24-14.51,4.17-23,5C113.902,135.6,120.362,133.209,124.862,132.339z"/>
		<path d="M128.862,200.339c-5.2,0.19-4.69-9.52-3-13C128.982,188.529,125.682,196.899,128.862,200.339z"/>
		<path fill="#FFFFFF" d="M124.862,293.319c3.75,0.96,5.36,8.13,3,12C125.432,303.05,123.112,296.579,124.862,293.319z"/>
		<path d="M95.862,145.339c14.11,1.78,17.51-7.15,30-7c-1.14,3.39-5.32,2.43-9,4c-3.94,1.69-5.97,4.4-12,5
			C102.332,147.589,96.712,148.819,95.862,145.339z"/>
		<path fill="#FFFFFF" d="M120.862,295.319c2.91,1.76,3.81,5.53,4,10C122.502,303.27,118.952,298.479,120.862,295.319z"/>
		<path d="M126.862,350.319c-3.54-1.95-4.63-7.38-6-11c-4.27-11.34-9.59-22.54-18-31c-7.46-7.5-19.43-14.36-17-31.99
			c0.56-4.029,2.8-6.08,5-10c1,0,2,0,3,0c-1.61,4.9-5.38,6.5-6,11c-2.41,17.5,13.49,23.82,23,35.99
			C120.142,325.209,123.222,336.739,126.862,350.319z"/>
		<path d="M111.862,217.33c3.05-12.59-3.11-21.37-7-29.99c1,0,2,0,3,0c12.65,17.14,3.54,45.26-4,61.99c-1.26,5.261,2.07,5.931,2,10
			c-3.55-0.12-4.02-3.31-4-7c-5.45,2.7-3.21,14.141,4,13c2.96-0.88-3.02-0.8-1-4c4.1-0.1,7.86,0.141,8,4c-4.86,3.17-13.16,2.34-16-2
			c0-3.34,0-6.67,0-10c8.46-7.2,10.36-20.97,14-33c-3.43-0.73-6.66,7.32-11,9c-4.68,9.54-10.06,17.021-13,30
			c-0.47,2.08,0.1,6.91-3,8c0.65-24.02,12.98-36.35,24-50C109.192,217.33,110.532,217.33,111.862,217.33z"/>
		<path d="M106.862,152.339c1.7-0.37,1.89,0.78,2,2c-6.6,5.9-0.33,16.09,1,23C103.552,173.799,101.772,158.469,106.862,152.339z"/>
		<path d="M95.862,163.339c4.5,2.5,5.93,8.07,7,14C98.672,174.529,97.362,168.839,95.862,163.339z"/>
		<path fill="#FFFFFF" d="M74.862,219.33c8.04-6.51,15.73-15.67,32-11C104.602,220.189,84.672,227.289,74.862,219.33z"/>
		<path fill="#FFFFFF" d="M79.862,188.339c10.8,1.53,19.47,5.2,26,11c-18.64,0.36-32.2,5.79-37.99,18.99
			c-10.05-5.67-3.81-14.44,1-21.99C73.992,195.129,75.002,189.799,79.862,188.339z"/>
		<path d="M96.862,138.339c-4.34,6.99-15.14,7.52-21,13c-1.29,2.71-1.82,6.18-5,7c0-2,0-4,0-6
			C78.672,146.819,86.572,141.379,96.862,138.339z"/>
		<path fill="#FFFFFF" d="M58.872,149.339c4.35,0.98,0.89,9.77,2,14C58.532,159.239,55.602,153.719,58.872,149.339z"/>
	</g>
	<g>
	</g>
</g>
</svg>
